 http://www.shotpix.com/images/28003923923696430064.jpg

 
http://www.imdb.com/title/tt1925479/

When a cop's crooked past comes back to get him, can he do the right thing, or will he succumb to the threats of his dangerous connections?
 


Director: 
Brian A Miller

 Writer: 
John Chase
 
Stars:
 Walton Goggins, Tommy Flanagan and James Woods

Genres:
 Crime | Drama 

Country:
USA 

Language:
English 



Source: RETAIL NTSC DVDR - MATiNE - Thanks Much M8.



Format                                   : MPEG-4
Format profile                           : Base Media
Codec ID                                 : isom
File size                                : 700 MiB
Duration                                 : 1h 37mn
Overall bit rate mode                    : Variable
Overall bit rate                         : 1 004 Kbps
Encoded date                             : UTC 2013-01-14 09:52:05
Tagged date                              : UTC 2013-01-14 09:52:05

Video
ID                                       : 1
Format                                   : AVC
Format/Info                              : Advanced Video Codec
Format profile                           : High@L4.1
Format settings, CABAC                   : Yes
Format settings, ReFrames                : 3 frames
Codec ID                                 : avc1
Codec ID/Info                            : Advanced Video Coding
Duration                                 : 1h 37mn
Bit rate mode                            : Variable
Bit rate                                 : 873 Kbps
Maximum bit rate                         : 40.0 Mbps
Width                                    : 720 pixels
Height                                   : 304 pixels
Display aspect ratio                     : 2.35:1
Frame rate mode                          : Constant
Frame rate                               : 23.976 fps
Color space                              : YUV
Chroma subsampling                       : 4:2:0
Bit depth                                : 8 bits
Scan type                                : Progressive
Bits/(Pixel*Frame)                       : 0.166
Stream size                              : 608 MiB (87%)
Title                                    : 264#trackID=1:fps=23.976@GPAC0.5.1-DEV-rev4277
Writing library                          : x264 core 129 r2245 bc13772
Encoding settings                        : cabac=1 / ref=4 / deblock=1:-1:-1 / analyse=0x3:0x113 / me=umh / subme=9 / psy=1 / psy_rd=1.00:0.15 / mixed_ref=1 / me_range=18 / chroma_me=1 / trellis=2 / 8x8dct=1 / cqm=0 / deadzone=21,11 / fast_pskip=0 / chroma_qp_offset=-3 / threads=6 / lookahead_threads=1 / sliced_threads=0 / slices=4 / nr=0 / decimate=1 / interlaced=0 / bluray_compat=0 / constrained_intra=0 / bframes=3 / b_pyramid=1 / b_adapt=2 / b_bias=0 / direct=1 / weightb=1 / open_gop=0 / weightp=0 / keyint=23 / keyint_min=1 / scenecut=40 / intra_refresh=0 / rc_lookahead=23 / rc=2pass / mbtree=1 / bitrate=873 / ratetol=1.0 / qcomp=0.60 / qpmin=10 / qpmax=51 / qpstep=4 / cplxblur=20.0 / qblur=0.5 / vbv_maxrate=40000 / vbv_bufsize=30000 / nal_hrd=vbr / ip_ratio=1.40 / aq=1:1.00
Encoded date                             : UTC 2013-01-14 09:52:05
Tagged date                              : UTC 2013-01-14 09:52:39
Color primaries                          : BT.709-5, BT.1361, IEC 61966-2-4, SMPTE RP177
Transfer characteristics                 : BT.709-5, BT.1361
Matrix coefficients                      : BT.709-5, BT.1361, IEC 61966-2-4 709, SMPTE RP177

Audio
ID                                       : 2
Format                                   : AAC
Format/Info                              : Advanced Audio Codec
Format profile                           : LC
Codec ID                                 : 40
Duration                                 : 1h 37mn
Bit rate mode                            : Variable
Bit rate                                 : 128 Kbps
Maximum bit rate                         : 145 Kbps
Channel(s)                               : 6 channels
Channel positions                        : Front: L C R, Side: L R, LFE
Sampling rate                            : 48.0 KHz
Compression mode                         : Lossy
Stream size                              : 88.9 MiB (13%)
Language                                 : English
Encoded date                             : UTC 2013-01-14 08:39:56
Tagged date                              : UTC 2013-01-14 09:52:39


 
http://www.shotpix.com/images/49247187643792564914.png 
http://www.shotpix.com/images/17695019362620382930.png 
http://www.shotpix.com/images/24494447254568414333.png 
http://www.shotpix.com/images/92996378865226528920.png 
http://www.shotpix.com/images/84892266489122826739.png